<svg xmlns="http://www.w3.org/2000/svg" width="360" height="520" viewBox="0 0 360 520" role="img" aria-labelledby="title desc">
  <title id="title">Sustainable Fashion Week sidebar advertisement</title>
  <desc id="desc">A dark blue magazine-style sidebar advertisement for Sustainable Fashion Week.</desc>
  <defs>
    <linearGradient id="sidebarAdGradient" x1="0" x2="0" y1="0" y2="1">
      <stop offset="0" stop-color="#061a35"/>
      <stop offset="0.55" stop-color="#0b2d5c"/>
      <stop offset="1" stop-color="#123f7a"/>
    </linearGradient>
  </defs>
  <rect width="360" height="520" fill="#ffffff"/>
  <rect x="0" y="0" width="360" height="520" fill="url(#sidebarAdGradient)"/>
  <path d="M235 0 H360 V182 H286 Z" fill="#ffffff" opacity="0.08"/>
  <path d="M0 366 L112 520 H0 Z" fill="#041326" opacity="0.38"/>
  <circle cx="286" cy="82" r="42" fill="#eef4fb" opacity="0.96"/>
  <path d="M260 89 C279 56 296 56 313 89 C296 80 277 80 260 89 Z" fill="#0b2d5c"/>
  <path d="M276 101 C283 90 294 90 301 101 H276 Z" fill="#123f7a"/>
  <text x="30" y="54" fill="#b9d4f2" font-family="Arial, Helvetica, sans-serif" font-size="15" font-weight="800" letter-spacing="1.2">THREADLINE NEWS</text>
  <text x="30" y="103" fill="#ffffff" font-family="Arial, Helvetica, sans-serif" font-size="34" font-weight="900">SUSTAINABLE</text>
  <text x="30" y="142" fill="#ffffff" font-family="Arial, Helvetica, sans-serif" font-size="34" font-weight="900">FASHION WEEK</text>
  <line x1="30" y1="168" x2="250" y2="168" stroke="#b9d4f2" stroke-width="4"/>
  <text x="30" y="214" fill="#eef4fb" font-family="Arial, Helvetica, sans-serif" font-size="25" font-weight="900">Thrift | Rewear | Restyle</text>
  <text x="30" y="254" fill="#ffffff" font-family="Arial, Helvetica, sans-serif" font-size="20" font-weight="700">Curated vintage pieces,</text>
  <text x="30" y="282" fill="#ffffff" font-family="Arial, Helvetica, sans-serif" font-size="20" font-weight="700">student styling, and</text>
  <text x="30" y="310" fill="#ffffff" font-family="Arial, Helvetica, sans-serif" font-size="20" font-weight="700">eco-conscious fashion</text>
  <rect x="30" y="348" width="118" height="42" fill="#eef4fb"/>
  <text x="48" y="376" fill="#061a35" font-family="Arial, Helvetica, sans-serif" font-size="21" font-weight="900">July 2026</text>
  <rect x="30" y="420" width="224" height="48" fill="#ffffff"/>
  <text x="59" y="451" fill="#061a35" font-family="Arial, Helvetica, sans-serif" font-size="22" font-weight="900">Discover the Week</text>
  <text x="30" y="497" fill="#b9d4f2" font-family="Arial, Helvetica, sans-serif" font-size="14" font-weight="800">Special advertising feature</text>
  <rect x="0.5" y="0.5" width="359" height="519" fill="none" stroke="#d8d8d8"/>
</svg>
